<svg version="1.1" id="Layer_1" xmlns="http://www.w3.org/2000/svg" xmlns:xlink="http://www.w3.org/1999/xlink" x="0px" y="0px"
	 width="100%" viewBox="0 0 512 512" xml:space="preserve">
<path fill="#F9FBFE" opacity="1.000000" stroke="none" 
	d="
M388.161438,137.386383 
	C392.511627,137.757706 396.573151,137.626587 400.337891,138.620102 
	C412.458099,141.818573 422.274353,148.414642 427.281311,160.296051 
	C433.041168,173.963989 431.753632,186.981949 423.620850,199.824814 
	C414.014313,214.994781 390.451324,218.240021 376.011169,213.685043 
	C355.054932,207.074631 344.184570,175.124207 357.606140,155.855804 
	C365.153290,145.020813 375.417114,139.829300 388.161438,137.386383 
z"/>
<path fill="#F9FBFE" opacity="1.000000" stroke="none" 
	d="
M120.584702,214.510864 
	C101.777519,209.639465 92.409691,194.445587 91.508362,177.454132 
	C91.026482,168.370087 93.820366,159.717316 100.040321,152.616058 
	C113.053902,137.758575 128.108047,133.412872 146.116867,140.283051 
	C159.896683,145.539932 167.731003,155.757492 170.191193,170.721741 
	C172.078827,182.203369 168.902603,192.132156 162.795181,200.977829 
	C159.616791,205.581268 153.938889,208.726227 148.910248,211.725632 
	C140.186432,216.929108 130.593231,216.646164 120.584702,214.510864 
z"/>
<path fill="#F4F6FD" opacity="1.000000" stroke="none" 
	d="
M173.953278,270.122070 
	C168.726303,265.017120 163.796829,259.557251 158.213425,254.877563 
	C144.571045,243.443237 119.611679,241.916718 104.716110,253.427521 
	C97.507393,258.998199 92.573067,265.783264 88.489815,273.117340 
	C85.700226,278.127869 85.015984,284.773468 84.890533,290.719666 
	C84.472916,310.515869 84.732498,330.326324 84.732498,350.508118 
	C78.725342,350.508118 72.705421,350.508118 66.197983,350.508118 
	C66.197983,348.742920 66.199898,347.120667 66.197693,345.498383 
	C66.169579,324.854828 65.798752,304.203552 66.266663,283.571259 
	C66.478546,274.228027 70.317841,265.651611 75.105591,257.546143 
	C78.923447,251.082611 83.410019,244.944839 89.341927,240.717407 
	C99.469795,233.499634 110.557854,227.771362 123.469009,227.087372 
	C136.497269,226.397186 149.125916,227.546249 160.875092,234.050293 
	C167.922852,237.951767 174.250656,242.540695 178.948090,249.906281 
	C177.279236,257.140259 175.616257,263.631165 173.953278,270.122070 
z"/>
<path fill="#F4F6FD" opacity="1.000000" stroke="none" 
	d="
M337.958008,247.882690 
	C341.185974,244.386383 343.828888,239.900818 347.752289,237.580338 
	C359.244690,230.783218 371.621429,226.402390 385.378418,227.085205 
	C397.790955,227.701279 409.387665,230.750946 419.793518,237.662445 
	C437.762787,249.597534 447.489685,266.250824 447.963593,287.963715 
	C448.388000,307.408813 448.611755,326.858307 448.917633,346.305969 
	C448.943542,347.952484 448.921082,349.599792 448.921082,351.877747 
	C443.417358,351.877747 438.129700,352.132477 432.908112,351.658691 
	C431.887177,351.566101 430.375397,348.658447 430.354340,347.032745 
	C430.123077,329.202087 429.985748,311.366821 430.141113,293.535553 
	C430.278687,277.746582 423.732330,265.204529 412.023254,255.202103 
	C399.924286,244.866653 377.407867,242.200760 363.677246,250.271500 
	C356.702332,254.371277 350.967682,260.581116 344.207092,265.615601 
	C341.813873,259.557007 339.885925,253.719849 337.958008,247.882690 
z"/>
<path fill="#F9FBFE" opacity="1.000000" stroke="none" 
	d="
M337.641632,248.007721 
	C339.885925,253.719849 341.813873,259.557007 343.894836,265.750122 
	C340.929626,269.973358 337.811432,273.840637 335.033417,277.285980 
	C332.624939,272.180206 330.093231,267.023987 327.804749,261.762024 
	C327.405182,260.843262 327.621857,259.145142 328.250610,258.377960 
	C331.140289,254.852097 334.277130,251.528748 337.641632,248.007721 
z"/>
<path fill="#F9FBFE" opacity="1.000000" stroke="none" 
	d="
M174.076614,270.437622 
	C175.616257,263.631165 177.279236,257.140259 178.990295,250.270111 
	C182.239304,252.961456 185.545288,255.933853 188.568558,259.170380 
	C189.342331,259.998718 189.910477,262.172455 189.401321,262.858917 
	C186.086456,267.327789 182.448563,271.557098 178.930435,275.847656 
	C177.416168,274.216858 175.808060,272.485016 174.076614,270.437622 
z"/>
</svg>