<svg version="1.1" id="Layer_1" xmlns="http://www.w3.org/2000/svg" xmlns:xlink="http://www.w3.org/1999/xlink" x="0px" y="0px"
	 width="100%" viewBox="0 0 512 512" xml:space="preserve">
<path fill="#FBFCFE" opacity="1.000000" stroke="none" 
	d="
M222.449738,105.424606 
	C232.142761,98.076363 242.162781,92.591225 254.391785,91.986938 
	C267.996674,91.314667 280.183105,94.103722 291.779236,101.990929 
	C299.983063,107.570808 303.932465,115.391899 307.664551,123.513847 
	C312.576172,134.202728 311.986511,145.504547 307.951324,156.373535 
	C302.976440,169.773682 293.926483,179.659790 280.230286,184.419876 
	C274.074615,186.559296 267.474884,188.883698 261.132507,188.735458 
	C245.265228,188.364609 230.653168,184.184052 219.700912,171.183548 
	C208.248322,157.589157 205.232422,142.225845 210.414917,125.791443 
	C212.693329,118.566338 218.167419,112.348976 222.449738,105.424606 
z"/>
<path fill="#F5F7FD" opacity="1.000000" stroke="none" 
	d="
M330.187561,272.914917 
	C327.665253,258.648438 322.041626,246.514709 310.702393,236.474792 
	C302.166931,228.917358 293.583527,222.065887 282.571350,219.703659 
	C261.320679,215.145126 240.064301,214.841843 220.421234,225.900223 
	C214.263412,229.366882 208.995667,234.655090 203.874069,239.674362 
	C191.245911,252.050217 186.765762,267.660767 186.919189,285.855652 
	C186.912430,299.509125 186.889740,312.238373 187.047806,324.965363 
	C187.127441,331.377228 187.534988,337.785034 187.794250,344.194672 
	C187.821350,356.187561 187.735321,368.182404 187.941803,380.172211 
	C188.007126,383.964325 186.315842,385.048828 182.949966,385.007294 
	C171.642181,384.867828 172.670715,386.319641 172.606155,375.035675 
	C172.440323,346.054657 171.871246,317.067291 172.326981,288.096039 
	C172.491928,277.609406 172.219421,266.896149 175.728027,256.570953 
	C179.404922,245.750534 185.992783,237.016129 193.112946,228.328995 
	C206.244995,212.306961 223.838303,205.358368 243.508408,203.248199 
	C254.294052,202.091110 265.359192,202.386520 276.204010,203.233780 
	C288.980835,204.231979 300.531799,209.362793 311.346527,216.303741 
	C329.238220,227.786728 338.631256,245.110306 344.664429,264.591034 
	C346.144562,269.370361 345.774963,274.796661 345.832764,279.930298 
	C346.205719,313.054199 346.393646,346.180298 346.837158,379.303070 
	C346.895660,383.672668 345.435760,385.095093 341.175293,385.058868 
	C331.103271,384.973236 331.105743,385.121887 331.095367,374.842896 
	C331.085938,365.514832 331.180664,356.184692 331.010010,346.859497 
	C330.907715,341.272034 330.384155,335.692352 330.480652,329.420532 
	C330.938477,311.725220 330.987213,294.718475 330.957306,277.711884 
	C330.954498,276.112457 330.455933,274.513885 330.187561,272.914917 
z"/>
</svg>